<?xml version="1.0" standalone="no"?><!DOCTYPE svg PUBLIC "-//W3C//DTD SVG 1.1//EN" "http://www.w3.org/Graphics/SVG/1.1/DTD/svg11.dtd"><svg t="1615175076606" class="icon" viewBox="0 0 1024 1024" version="1.1" xmlns="http://www.w3.org/2000/svg" p-id="2334" xmlns:xlink="http://www.w3.org/1999/xlink" width="200" height="200"><defs><style type="text/css"></style></defs><path d="M512 880.64C308.40832 880.64 143.36 715.59168 143.36 512 143.36 308.40832 308.40832 143.36 512 143.36 715.59168 143.36 880.64 308.40832 880.64 512 880.64 715.59168 715.59168 880.64 512 880.64ZM512 184.32C331.03872 184.32 184.32 331.01824 184.32 512 184.32 692.98176 331.03872 839.68 512 839.68 692.98176 839.68 839.68 692.98176 839.68 512 839.68 331.01824 692.98176 184.32 512 184.32ZM613.888 694.04672 492.97408 573.15328C492.46208 573.19424 492.032 573.44 491.52 573.44 480.21504 573.44 471.04 564.28544 471.04 552.96L471.04 307.2C471.04 295.89504 480.21504 286.72 491.52 286.72 502.82496 286.72 512 295.89504 512 307.2L512 534.40512C512.14336 534.56896 512.36864 534.60992 512.512 534.75328L642.84672 665.088C650.8544 673.09568 650.8544 686.05952 642.84672 694.04672 634.85952 702.0544 621.8752 702.0544 613.888 694.04672Z" p-id="2335" fill="#cdcdcd"></path></svg>