<?xml version="1.0" standalone="no"?>
<!DOCTYPE svg PUBLIC "-//W3C//DTD SVG 1.1//EN" "http://www.w3.org/Graphics/SVG/1.1/DTD/svg11.dtd"><svg t="1614257237620"
    class="icon" viewBox="0 0 1024 1024" version="1.1" xmlns="http://www.w3.org/2000/svg" p-id="15194"
    xmlns:xlink="http://www.w3.org/1999/xlink" width="200" height="200">
    <defs>
        <style type="text/css"></style>
    </defs>
    <path
        d="M512 54.857c252.343 0 457.143 204.8 457.143 457.143S764.343 969.143 512 969.143 54.857 764.343 54.857 512c0-84.114 21.943-164.571 62.172-234.057 14.628-21.943 18.285-54.857 18.285-84.114 0-14.629 3.657-47.543 7.315-51.2 7.314-7.315 36.571-7.315 51.2-7.315 29.257 0 58.514-3.657 84.114-18.285C351.086 76.8 431.543 54.857 512 54.857m0-36.571c-91.429 0-175.543 25.6-248.686 69.485-36.571 21.943-113.371 0-142.628 32.915-32.915 25.6-10.972 102.4-32.915 138.971C43.886 332.8 18.286 420.571 18.286 512c0 274.286 219.428 493.714 493.714 493.714S1005.714 786.286 1005.714 512 786.286 18.286 512 18.286z"
        fill="#fff" p-id="15195"></path>
    <path d="M431.543 694.857a113.371 113.371 0 1 0 226.743 0 113.371 113.371 0 1 0-226.743 0z" fill="#fff"
        p-id="15196"></path>
    <path
        d="M603.429 811.886c-54.858 0-95.086-10.972-95.086-10.972l7.314-36.571c14.629 3.657 321.829 76.8 453.486-245.029l32.914 14.629C906.971 771.657 716.8 811.886 603.43 811.886zM113.37 800.914C98.743 793.6 84.114 782.63 73.143 768c-36.572-47.543-29.257-124.343 25.6-219.429 51.2-87.771 138.971-182.857 241.371-263.314C563.2 109.714 797.257 47.543 874.057 142.63 885.03 157.257 892.343 179.2 896 201.143l-36.571 3.657c0-14.629-7.315-29.257-14.629-36.571-54.857-69.486-259.657-25.6-482.743 146.285C259.657 394.971 179.2 482.743 128 566.857c-43.886 76.8-54.857 142.629-29.257 179.2 7.314 7.314 18.286 14.629 29.257 21.943l-14.629 32.914z"
        fill="#fff" p-id="15197"></path>
</svg>